<svg width="1328" height="685" viewBox="0 0 1328 685" fill="none" xmlns="http://www.w3.org/2000/svg">
<path d="M212 512.5C102.5 487.5 1 655 1 655H1226V0.5C1226 0.5 1112 282 1185.5 361.5C1259 441 975.5 641.5 975.5 641.5C862 676 653.5 512.5 653.5 512.5C582 462 484.5 596.5 484.5 596.5C366 721 212 512.5 212 512.5Z" fill="#DECAD5"/>
<path d="M1411.5 713.5L1339.5 944M1 655C1 655 102.5 487.5 212 512.5C212 512.5 366 721 484.5 596.5C484.5 596.5 582 462 653.5 512.5C653.5 512.5 862 676 975.5 641.5C975.5 641.5 1259 441 1185.5 361.5C1112 282 1226 0.5 1226 0.5V655H1Z" stroke="#DECAD5"/>
</svg>
