<svg width="98" height="904" viewBox="0 0 98 904" fill="none" xmlns="http://www.w3.org/2000/svg">
<g filter="url(#filter0_d_11_8)">
<path d="M71.9003 877.651C75.8376 877.356 77.6776 869.905 45.4994 827C-13 749 -7.00012 712 75.4995 605C75.4995 605 -27.0003 396.5 14.9999 333.5C57.0001 270.5 92.9995 205.5 75.4995 153C57.9995 100.5 -0.000328064 68 29.9997 27.5C29.9997 27.5 75.4995 70.5 92.9995 0.5V894.5L75.4995 879.5C74.0557 878.724 72.8677 878.118 71.9003 877.651C69.086 877.862 65.2002 874.417 71.9003 877.651Z" fill="#DECAD5"/>
<path d="M45.4994 827C103.999 905 50.0657 865.822 75.4995 879.5L92.9995 894.5V0.5C75.4995 70.5 29.9997 27.5 29.9997 27.5C-0.000328064 68 57.9995 100.5 75.4995 153C92.9995 205.5 57.0001 270.5 14.9999 333.5C-27.0003 396.5 75.4995 605 75.4995 605C-7.00012 712 -13 749 45.4994 827Z" stroke="#DECAD5"/>
</g>
<defs>
<filter id="filter0_d_11_8" x="0.394287" y="0.378784" width="97.1052" height="903.209" filterUnits="userSpaceOnUse" color-interpolation-filters="sRGB">
<feFlood flood-opacity="0" result="BackgroundImageFix"/>
<feColorMatrix in="SourceAlpha" type="matrix" values="0 0 0 0 0 0 0 0 0 0 0 0 0 0 0 0 0 0 127 0" result="hardAlpha"/>
<feOffset dy="4"/>
<feGaussianBlur stdDeviation="2"/>
<feComposite in2="hardAlpha" operator="out"/>
<feColorMatrix type="matrix" values="0 0 0 0 0 0 0 0 0 0 0 0 0 0 0 0 0 0 0.25 0"/>
<feBlend mode="normal" in2="BackgroundImageFix" result="effect1_dropShadow_11_8"/>
<feBlend mode="normal" in="SourceGraphic" in2="effect1_dropShadow_11_8" result="shape"/>
</filter>
</defs>
</svg>
